<svg xmlns="http://www.w3.org/2000/svg" xmlns:xlink="http://www.w3.org/1999/xlink" width="194" zoomAndPan="magnify" viewBox="0 0 145.5 44.249999" height="59" preserveAspectRatio="xMidYMid meet" version="1.0"><defs><g/><clipPath id="860fbe675e"><path d="M 1 0 L 39.316406 0 L 39.316406 37.613281 L 1 37.613281 Z M 1 0 " clip-rule="nonzero"/></clipPath></defs><g clip-path="url(#860fbe675e)"><path fill="#ffffff" d="M 39.230469 1.394531 C 39.152344 1.210938 38.992188 1.117188 38.800781 1.101562 C 36.03125 0.917969 33.261719 0.796875 30.492188 0.679688 C 27.722656 0.5625 24.953125 0.410156 22.183594 0.355469 C 21.398438 0.339844 20.621094 0.304688 19.835938 0.273438 C 19.441406 0.257812 19.042969 0.246094 18.644531 0.238281 C 18.507812 0.238281 18.371094 0.238281 18.234375 0.246094 C 18.171875 0.101562 18.003906 0.00390625 17.816406 0.109375 C 17.734375 0.15625 17.652344 0.207031 17.570312 0.257812 C 17.53125 0.257812 17.492188 0.253906 17.453125 0.253906 C 17.246094 0.246094 17.132812 0.382812 17.109375 0.542969 C 16.21875 1.121094 15.378906 1.777344 14.519531 2.402344 C 13.359375 3.246094 12.234375 4.144531 11.109375 5.035156 C 9.988281 5.917969 8.921875 6.855469 7.816406 7.75 C 6.75 8.609375 5.691406 9.46875 4.648438 10.351562 C 3.472656 11.359375 2.285156 12.359375 1.191406 13.460938 C 0.972656 13.679688 1.136719 14.050781 1.441406 14.058594 C 1.792969 14.070312 2.152344 14.015625 2.507812 14.03125 C 2.859375 14.046875 3.21875 14.0625 3.574219 14.074219 C 4.296875 14.109375 5.019531 14.140625 5.746094 14.164062 C 6.152344 14.175781 6.5625 14.191406 6.96875 14.207031 C 6.9375 14.324219 7.003906 14.453125 7.121094 14.480469 C 7.03125 15.605469 7.019531 16.730469 7.089844 17.859375 C 7.125 18.449219 7.179688 19.035156 7.257812 19.621094 C 7.316406 20.097656 7.375 20.585938 7.496094 21.058594 C 7.480469 21.058594 7.46875 21.058594 7.453125 21.0625 C 6.933594 21.164062 6.492188 21.523438 6.21875 21.972656 C 5.917969 22.464844 5.878906 23.101562 5.921875 23.664062 C 5.96875 24.242188 6.117188 24.804688 6.441406 25.296875 C 6.558594 25.480469 6.730469 25.703125 6.933594 25.875 C 5.722656 26.59375 5.285156 28.039062 4.96875 29.328125 C 4.566406 30.976562 4.308594 32.671875 4.257812 34.375 C 4.230469 35.328125 4.257812 36.308594 4.4375 37.25 C 4.472656 37.441406 4.730469 37.417969 4.796875 37.269531 C 4.871094 37.273438 4.941406 37.257812 5 37.214844 C 5.230469 37.039062 5.472656 36.84375 5.777344 36.867188 C 6.074219 36.890625 6.332031 36.945312 6.628906 36.882812 C 6.882812 36.828125 7.125 36.710938 7.328125 36.554688 C 7.429688 36.480469 7.523438 36.394531 7.601562 36.292969 C 7.628906 36.257812 7.683594 36.144531 7.71875 36.128906 C 7.789062 36.09375 7.824219 36.15625 7.882812 36.195312 C 8.28125 36.492188 8.9375 36.730469 9.402344 36.457031 C 9.761719 36.246094 9.90625 35.699219 9.84375 35.285156 C 10.324219 34.015625 10.566406 32.667969 10.613281 31.304688 C 10.667969 29.742188 10.335938 28.175781 9.542969 26.820312 C 9.234375 26.292969 8.757812 25.746094 8.167969 25.679688 C 8.363281 25.425781 8.519531 25.132812 8.664062 24.855469 C 8.894531 24.425781 9.082031 23.972656 9.140625 23.488281 C 9.242188 22.621094 8.746094 21.6875 7.992188 21.257812 C 7.957031 21.238281 7.921875 21.226562 7.890625 21.222656 C 7.863281 21.1875 7.835938 21.160156 7.804688 21.136719 C 7.769531 20.628906 7.679688 20.125 7.628906 19.621094 C 7.5625 19.023438 7.519531 18.421875 7.496094 17.820312 C 7.449219 16.648438 7.480469 15.46875 7.574219 14.300781 C 7.605469 14.28125 7.636719 14.261719 7.671875 14.242188 C 8.449219 14.277344 9.226562 14.324219 10.003906 14.390625 C 10.15625 14.40625 10.308594 14.417969 10.457031 14.433594 C 10.453125 16.652344 10.425781 18.875 10.472656 21.09375 C 10.476562 21.394531 10.488281 21.695312 10.5 21.996094 C 10.503906 22.046875 10.503906 22.101562 10.507812 22.15625 L 10.507812 22.160156 C 10.496094 22.230469 10.5 22.304688 10.523438 22.375 C 10.523438 22.375 10.523438 22.378906 10.523438 22.382812 C 10.5625 22.515625 10.667969 22.632812 10.84375 22.6875 C 10.957031 22.722656 11.070312 22.753906 11.183594 22.785156 C 12.960938 23.289062 14.863281 23.488281 16.703125 23.5 C 18.675781 23.507812 20.660156 23.261719 22.566406 22.75 C 24.335938 22.269531 26.042969 21.621094 27.644531 20.726562 C 29.148438 19.886719 30.59375 18.859375 31.871094 17.707031 C 33.125 16.574219 34.25 15.300781 35.214844 13.917969 C 35.335938 13.753906 35.453125 13.582031 35.5625 13.410156 C 35.558594 13.347656 35.539062 13.289062 35.503906 13.230469 C 35.367188 12.992188 35.210938 12.761719 35.050781 12.535156 C 34.867188 12.273438 34.675781 12.011719 34.5 11.75 C 34.164062 11.253906 33.839844 10.753906 33.523438 10.25 C 33.011719 9.429688 32.519531 8.59375 32.054688 7.75 C 33.058594 6.894531 34.070312 6.050781 35.085938 5.210938 C 36.160156 4.324219 37.257812 3.460938 38.324219 2.558594 C 38.589844 2.335938 38.863281 2.125 39.132812 1.910156 C 39.277344 1.796875 39.300781 1.546875 39.230469 1.394531 Z M 9.105469 27.402344 C 9.425781 28 9.648438 28.636719 9.820312 29.292969 C 9.992188 29.960938 10.085938 30.648438 10.105469 31.339844 C 10.132812 32.082031 10.03125 32.8125 9.910156 33.542969 C 9.828125 34.042969 9.710938 34.53125 9.582031 35.019531 C 9.523438 35.035156 9.46875 35.078125 9.441406 35.148438 C 9.308594 35.546875 9.375 36.160156 8.789062 36.171875 C 8.527344 36.175781 8.269531 36.0625 8.058594 35.914062 C 7.882812 35.789062 7.667969 35.667969 7.476562 35.835938 C 7.300781 35.988281 7.171875 36.160156 6.949219 36.261719 C 6.742188 36.355469 6.503906 36.390625 6.28125 36.351562 C 5.976562 36.300781 5.71875 36.175781 5.402344 36.222656 C 5.191406 36.253906 5 36.339844 4.820312 36.445312 C 4.820312 35.886719 4.816406 35.328125 4.832031 34.765625 C 4.859375 33.96875 4.910156 33.171875 5.007812 32.378906 C 5.109375 31.578125 5.25 30.773438 5.445312 29.988281 C 5.605469 29.328125 5.773438 28.644531 6.058594 28.023438 C 6.339844 27.40625 6.753906 26.8125 7.351562 26.472656 C 7.421875 26.433594 7.46875 26.382812 7.496094 26.328125 C 7.609375 26.460938 7.800781 26.484375 7.960938 26.40625 C 8.167969 26.300781 8.421875 26.484375 8.566406 26.621094 C 8.800781 26.839844 8.957031 27.125 9.105469 27.40625 Z M 8.640625 23.574219 C 8.65625 24 8.574219 24.425781 8.386719 24.808594 C 8.226562 25.132812 7.992188 25.40625 7.789062 25.703125 C 7.722656 25.71875 7.65625 25.738281 7.589844 25.765625 C 7.480469 25.667969 7.351562 25.585938 7.246094 25.488281 C 7.101562 25.359375 6.96875 25.214844 6.871094 25.042969 C 6.640625 24.644531 6.585938 24.15625 6.601562 23.703125 C 6.617188 23.199219 6.746094 22.5625 7.101562 22.171875 C 7.070312 22.257812 7.042969 22.34375 7.027344 22.433594 C 6.984375 22.640625 6.96875 22.851562 6.984375 23.0625 C 7 23.285156 7.019531 23.519531 7.09375 23.730469 C 7.136719 23.847656 7.316406 23.867188 7.347656 23.730469 C 7.394531 23.539062 7.398438 23.339844 7.417969 23.144531 C 7.4375 22.960938 7.464844 22.777344 7.507812 22.597656 C 7.554688 22.410156 7.613281 22.230469 7.710938 22.070312 C 7.742188 22.199219 7.765625 22.328125 7.785156 22.449219 C 7.824219 22.714844 7.828125 23.003906 7.863281 23.277344 C 7.875 23.34375 7.957031 23.394531 8.019531 23.394531 C 8.09375 23.394531 8.144531 23.34375 8.171875 23.277344 C 8.277344 23.003906 8.273438 22.664062 8.230469 22.375 C 8.214844 22.269531 8.191406 22.164062 8.164062 22.0625 C 8.492188 22.476562 8.621094 23.035156 8.640625 23.574219 Z M 32.734375 10.753906 C 33.039062 11.265625 33.359375 11.769531 33.6875 12.269531 C 33.925781 12.625 34.15625 13 34.414062 13.347656 C 32.660156 15.871094 30.347656 18.039062 27.691406 19.574219 C 26.199219 20.441406 24.613281 21.152344 22.957031 21.648438 C 21.164062 22.183594 19.277344 22.46875 17.410156 22.511719 C 16.34375 22.539062 15.273438 22.488281 14.21875 22.363281 C 13.265625 22.246094 12.332031 22.046875 11.402344 21.820312 C 11.40625 21.710938 11.40625 21.605469 11.410156 21.5 C 11.453125 20.296875 11.4375 19.089844 11.4375 17.886719 C 11.4375 16.773438 11.4375 15.65625 11.433594 14.542969 C 12.34375 14.652344 13.246094 14.789062 14.148438 14.957031 C 15.53125 15.214844 16.902344 15.53125 18.292969 15.773438 C 19.007812 15.894531 19.726562 16 20.449219 16.082031 C 20.792969 16.121094 21.140625 16.160156 21.488281 16.191406 C 21.832031 16.226562 22.167969 16.234375 22.488281 16.085938 C 22.78125 15.949219 23.011719 15.703125 23.246094 15.484375 C 23.492188 15.25 23.746094 15.011719 24 14.773438 C 24.511719 14.292969 25.039062 13.824219 25.5625 13.351562 C 26.074219 12.886719 26.613281 12.453125 27.132812 11.996094 C 27.664062 11.527344 28.191406 11.0625 28.726562 10.601562 C 29.601562 9.839844 30.484375 9.085938 31.367188 8.332031 C 31.800781 9.152344 32.257812 9.960938 32.734375 10.753906 Z M 35.226562 3.835938 C 34.167969 4.703125 33.117188 5.582031 32.070312 6.46875 C 31.882812 6.628906 31.691406 6.789062 31.503906 6.949219 C 31.3125 7.109375 31.121094 7.273438 30.933594 7.4375 C 30.261719 8.007812 29.59375 8.589844 28.925781 9.175781 C 27.902344 10.078125 26.847656 10.960938 25.871094 11.917969 C 24.882812 12.882812 23.835938 13.792969 22.8125 14.71875 C 22.601562 14.910156 22.375 15.195312 22.101562 15.300781 C 21.851562 15.402344 21.503906 15.300781 21.246094 15.265625 C 20.566406 15.179688 19.894531 15.0625 19.21875 14.96875 C 17.84375 14.78125 16.46875 14.582031 15.097656 14.382812 C 13.875 14.203125 12.65625 14.015625 11.433594 13.871094 C 11.265625 13.851562 11.097656 13.832031 10.929688 13.8125 C 10.773438 13.796875 10.617188 13.78125 10.460938 13.765625 C 9.859375 13.707031 9.257812 13.660156 8.65625 13.625 C 8.894531 13.480469 9.136719 13.332031 9.375 13.1875 C 10.074219 12.761719 10.773438 12.335938 11.476562 11.925781 C 12.878906 11.105469 14.273438 10.277344 15.679688 9.464844 C 16.480469 9 17.289062 8.554688 18.097656 8.101562 C 18.136719 8.082031 18.160156 8.050781 18.171875 8.015625 C 18.328125 8.179688 18.542969 8.253906 18.761719 8.292969 C 19.03125 8.34375 19.34375 8.265625 19.589844 8.144531 C 19.699219 8.09375 19.808594 8.039062 19.90625 7.972656 C 19.960938 7.9375 20.011719 7.902344 20.066406 7.875 C 20.128906 7.835938 20.183594 7.789062 20.21875 7.769531 C 20.339844 7.714844 20.398438 7.546875 20.363281 7.421875 C 20.332031 7.320312 20.292969 7.253906 20.21875 7.195312 C 20.183594 6.941406 20.097656 6.6875 19.972656 6.464844 C 19.828125 6.210938 19.570312 6.035156 19.289062 5.980469 C 18.992188 5.921875 18.667969 5.960938 18.40625 6.113281 C 18.144531 6.261719 17.9375 6.507812 17.816406 6.78125 C 17.667969 7.109375 17.609375 7.476562 17.632812 7.835938 C 17.636719 7.882812 17.648438 7.925781 17.667969 7.960938 C 16.320312 8.695312 14.96875 9.429688 13.632812 10.179688 C 12.214844 10.976562 10.824219 11.816406 9.429688 12.640625 C 9.035156 12.875 8.644531 13.105469 8.253906 13.34375 C 8.121094 13.421875 7.988281 13.5 7.851562 13.578125 C 6.070312 13.496094 4.285156 13.484375 2.503906 13.453125 C 2.421875 13.449219 2.339844 13.445312 2.253906 13.4375 C 3.0625 12.699219 3.878906 11.964844 4.726562 11.269531 C 5.785156 10.402344 6.863281 9.554688 7.9375 8.707031 C 10.152344 6.972656 12.449219 5.324219 14.570312 3.476562 C 15.558594 2.617188 16.539062 1.742188 17.609375 0.984375 C 17.898438 1.003906 18.191406 1.054688 18.480469 1.078125 C 18.835938 1.105469 19.191406 1.128906 19.546875 1.144531 C 20.234375 1.175781 20.921875 1.207031 21.605469 1.238281 C 22.304688 1.269531 23.003906 1.335938 23.703125 1.367188 C 24.402344 1.394531 25.101562 1.425781 25.800781 1.457031 C 28.570312 1.574219 31.335938 1.691406 34.101562 1.8125 C 35.253906 1.863281 36.402344 1.90625 37.550781 1.96875 C 36.773438 2.585938 35.996094 3.207031 35.226562 3.835938 Z M 18.191406 7.460938 C 18.207031 7.300781 18.25 7.144531 18.320312 7 C 18.386719 6.867188 18.457031 6.769531 18.570312 6.671875 C 18.632812 6.621094 18.785156 6.535156 18.867188 6.507812 C 19.085938 6.433594 19.328125 6.429688 19.523438 6.59375 C 19.628906 6.679688 19.710938 6.785156 19.753906 6.914062 C 19.785156 7.015625 19.808594 7.117188 19.828125 7.222656 C 19.78125 7.234375 19.734375 7.25 19.691406 7.265625 C 19.574219 7.308594 19.46875 7.355469 19.363281 7.417969 C 19.203125 7.515625 19.050781 7.636719 18.878906 7.71875 C 18.75 7.777344 18.621094 7.839844 18.46875 7.777344 C 18.34375 7.726562 18.230469 7.597656 18.195312 7.464844 C 18.195312 7.460938 18.191406 7.460938 18.191406 7.457031 Z M 7.582031 26.738281 C 6.957031 28.101562 6.484375 29.542969 6.175781 31.011719 C 5.867188 32.5 5.796875 33.992188 5.78125 35.503906 C 5.78125 35.589844 5.660156 35.585938 5.652344 35.503906 C 5.539062 33.996094 5.710938 32.445312 5.992188 30.960938 C 6.277344 29.460938 6.738281 28.003906 7.363281 26.609375 C 7.429688 26.460938 7.648438 26.589844 7.582031 26.738281 Z M 8.191406 27.550781 C 8.183594 30.234375 7.875 32.898438 7.238281 35.507812 C 7.230469 35.550781 7.167969 35.53125 7.175781 35.488281 C 7.6875 32.878906 7.957031 30.210938 7.941406 27.550781 C 7.941406 27.390625 8.191406 27.390625 8.191406 27.550781 Z M 8.648438 35.558594 C 9.09375 32.871094 9.140625 30.113281 8.742188 27.417969 C 8.71875 27.265625 8.949219 27.195312 8.976562 27.351562 C 9.460938 30.082031 9.402344 32.890625 8.765625 35.59375 C 8.746094 35.667969 8.636719 35.636719 8.648438 35.558594 Z M 8.648438 35.558594 " fill-opacity="1" fill-rule="nonzero"/></g><g fill="#51a0a2" fill-opacity="1"><g transform="translate(23.158391, 32.194112)"><g><path d="M 15.015625 -14.890625 C 14.992188 -14.742188 14.9375 -14.628906 14.84375 -14.546875 C 14.75 -14.460938 14.632812 -14.421875 14.5 -14.421875 L 6.828125 -14.421875 C 6.785156 -14.421875 6.742188 -14.398438 6.703125 -14.359375 C 6.660156 -14.328125 6.640625 -14.285156 6.640625 -14.234375 L 6.25 -11.171875 C 6.25 -11.046875 6.300781 -10.984375 6.40625 -10.984375 L 11.234375 -10.984375 C 11.378906 -10.984375 11.488281 -10.9375 11.5625 -10.84375 C 11.644531 -10.757812 11.675781 -10.648438 11.65625 -10.515625 L 11.3125 -7.8125 C 11.257812 -7.5 11.085938 -7.34375 10.796875 -7.34375 L 5.96875 -7.34375 C 5.863281 -7.34375 5.796875 -7.28125 5.765625 -7.15625 L 5.34375 -3.84375 C 5.34375 -3.726562 5.394531 -3.671875 5.5 -3.671875 L 13.1875 -3.671875 C 13.320312 -3.671875 13.421875 -3.625 13.484375 -3.53125 C 13.554688 -3.445312 13.582031 -3.335938 13.5625 -3.203125 L 13.234375 -0.46875 C 13.210938 -0.332031 13.160156 -0.21875 13.078125 -0.125 C 12.992188 -0.0390625 12.878906 0 12.734375 0 L 1.1875 0 C 1.050781 0 0.941406 -0.0390625 0.859375 -0.125 C 0.785156 -0.21875 0.757812 -0.332031 0.78125 -0.46875 L 2.890625 -17.625 C 2.910156 -17.757812 2.96875 -17.867188 3.0625 -17.953125 C 3.15625 -18.046875 3.269531 -18.09375 3.40625 -18.09375 L 14.96875 -18.09375 C 15.101562 -18.09375 15.203125 -18.046875 15.265625 -17.953125 C 15.335938 -17.867188 15.363281 -17.757812 15.34375 -17.625 Z M 15.015625 -14.890625 "/></g></g></g><g fill="#51a0a2" fill-opacity="1"><g transform="translate(37.631091, 32.194112)"><g><path d="M 0.40625 0 C 0.1875 0 0.078125 -0.0859375 0.078125 -0.265625 C 0.078125 -0.359375 0.117188 -0.457031 0.203125 -0.5625 L 4.8125 -6.5625 C 4.863281 -6.644531 4.878906 -6.734375 4.859375 -6.828125 L 1.734375 -12.796875 C 1.679688 -12.898438 1.65625 -12.984375 1.65625 -13.046875 C 1.65625 -13.140625 1.691406 -13.210938 1.765625 -13.265625 C 1.847656 -13.328125 1.945312 -13.359375 2.0625 -13.359375 L 5.5625 -13.359375 C 5.8125 -13.359375 5.984375 -13.253906 6.078125 -13.046875 L 7.5 -10.15625 C 7.53125 -10.101562 7.566406 -10.078125 7.609375 -10.078125 C 7.648438 -10.078125 7.691406 -10.101562 7.734375 -10.15625 L 9.890625 -13.046875 C 10.046875 -13.253906 10.25 -13.359375 10.5 -13.359375 L 14.21875 -13.359375 C 14.457031 -13.359375 14.578125 -13.28125 14.578125 -13.125 C 14.578125 -13.039062 14.523438 -12.929688 14.421875 -12.796875 L 9.84375 -6.828125 C 9.789062 -6.753906 9.773438 -6.664062 9.796875 -6.5625 L 12.953125 -0.5625 C 12.984375 -0.507812 13 -0.4375 13 -0.34375 C 13 -0.113281 12.863281 0 12.59375 0 L 9.09375 0 C 8.832031 0 8.660156 -0.101562 8.578125 -0.3125 L 7.15625 -3.203125 C 7.101562 -3.328125 7.019531 -3.328125 6.90625 -3.203125 L 4.75 -0.3125 C 4.59375 -0.101562 4.394531 0 4.15625 0 Z M 0.40625 0 "/></g></g></g><g fill="#51a0a2" fill-opacity="1"><g transform="translate(51.6386, 32.194112)"><g><path d="M 9.890625 -12.890625 C 9.941406 -13.203125 10.117188 -13.359375 10.421875 -13.359375 L 13.671875 -13.359375 C 13.804688 -13.359375 13.90625 -13.316406 13.96875 -13.234375 C 14.039062 -13.148438 14.070312 -13.035156 14.0625 -12.890625 L 12.53125 -0.46875 C 12.519531 -0.332031 12.46875 -0.21875 12.375 -0.125 C 12.289062 -0.0390625 12.179688 0 12.046875 0 L 8.78125 0 C 8.644531 0 8.535156 -0.0390625 8.453125 -0.125 C 8.378906 -0.21875 8.351562 -0.332031 8.375 -0.46875 L 8.453125 -1.078125 C 8.472656 -1.171875 8.457031 -1.222656 8.40625 -1.234375 C 8.363281 -1.253906 8.316406 -1.226562 8.265625 -1.15625 C 7.492188 -0.25 6.488281 0.203125 5.25 0.203125 C 4.164062 0.203125 3.203125 -0.164062 2.359375 -0.90625 C 1.523438 -1.644531 1.015625 -2.597656 0.828125 -3.765625 C 0.742188 -4.316406 0.703125 -4.8125 0.703125 -5.25 C 0.703125 -5.59375 0.734375 -6.09375 0.796875 -6.75 C 0.941406 -7.914062 1.253906 -9 1.734375 -10 C 2.242188 -11.070312 2.96875 -11.9375 3.90625 -12.59375 C 4.851562 -13.257812 5.859375 -13.59375 6.921875 -13.59375 C 8.210938 -13.59375 9.117188 -13.195312 9.640625 -12.40625 C 9.671875 -12.332031 9.710938 -12.304688 9.765625 -12.328125 C 9.816406 -12.347656 9.84375 -12.398438 9.84375 -12.484375 Z M 8.421875 -4.546875 C 8.785156 -5.128906 9.019531 -5.835938 9.125 -6.671875 C 9.15625 -7.078125 9.171875 -7.359375 9.171875 -7.515625 C 9.171875 -8.085938 9.09375 -8.5625 8.9375 -8.9375 C 8.664062 -9.53125 8.21875 -9.828125 7.59375 -9.828125 C 6.9375 -9.828125 6.40625 -9.523438 6 -8.921875 C 5.632812 -8.378906 5.382812 -7.628906 5.25 -6.671875 C 5.207031 -6.328125 5.1875 -6.082031 5.1875 -5.9375 C 5.1875 -5.382812 5.265625 -4.910156 5.421875 -4.515625 C 5.660156 -3.878906 6.128906 -3.5625 6.828125 -3.5625 C 7.484375 -3.5625 8.015625 -3.890625 8.421875 -4.546875 Z M 8.421875 -4.546875 "/></g></g></g><g fill="#51a0a2" fill-opacity="1"><g transform="translate(65.671951, 32.194112)"><g><path d="M 17.109375 -13.5625 C 18.273438 -13.5625 19.171875 -13.226562 19.796875 -12.5625 C 20.429688 -11.90625 20.75 -10.972656 20.75 -9.765625 C 20.75 -9.359375 20.734375 -9.050781 20.703125 -8.84375 L 19.671875 -0.46875 C 19.617188 -0.15625 19.445312 0 19.15625 0 L 15.921875 0 C 15.785156 0 15.679688 -0.0390625 15.609375 -0.125 C 15.535156 -0.21875 15.507812 -0.332031 15.53125 -0.46875 L 16.4375 -7.90625 C 16.457031 -7.988281 16.46875 -8.117188 16.46875 -8.296875 C 16.46875 -8.773438 16.34375 -9.160156 16.09375 -9.453125 C 15.84375 -9.742188 15.5 -9.890625 15.0625 -9.890625 C 14.582031 -9.890625 14.164062 -9.707031 13.8125 -9.34375 C 13.457031 -8.988281 13.25 -8.507812 13.1875 -7.90625 L 12.28125 -0.46875 C 12.226562 -0.15625 12.054688 0 11.765625 0 L 8.5 0 C 8.363281 0 8.257812 -0.0390625 8.1875 -0.125 C 8.125 -0.21875 8.097656 -0.332031 8.109375 -0.46875 L 9.015625 -7.90625 C 9.035156 -7.988281 9.046875 -8.109375 9.046875 -8.265625 C 9.046875 -8.765625 8.910156 -9.160156 8.640625 -9.453125 C 8.378906 -9.742188 8.03125 -9.890625 7.59375 -9.890625 C 7.144531 -9.890625 6.753906 -9.742188 6.421875 -9.453125 C 6.085938 -9.160156 5.859375 -8.773438 5.734375 -8.296875 L 4.78125 -0.46875 C 4.726562 -0.15625 4.554688 0 4.265625 0 L 1.015625 0 C 0.867188 0 0.757812 -0.0390625 0.6875 -0.125 C 0.625 -0.21875 0.601562 -0.332031 0.625 -0.46875 L 2.140625 -12.890625 C 2.160156 -13.035156 2.210938 -13.148438 2.296875 -13.234375 C 2.378906 -13.316406 2.492188 -13.359375 2.640625 -13.359375 L 5.890625 -13.359375 C 6.023438 -13.359375 6.128906 -13.316406 6.203125 -13.234375 C 6.285156 -13.148438 6.320312 -13.035156 6.3125 -12.890625 L 6.171875 -11.984375 L 6.171875 -11.9375 C 6.171875 -11.875 6.191406 -11.84375 6.234375 -11.84375 C 6.285156 -11.84375 6.335938 -11.875 6.390625 -11.9375 C 7.160156 -13.019531 8.28125 -13.5625 9.75 -13.5625 C 10.570312 -13.5625 11.269531 -13.375 11.84375 -13 C 12.425781 -12.632812 12.847656 -12.097656 13.109375 -11.390625 C 13.117188 -11.328125 13.144531 -11.296875 13.1875 -11.296875 C 13.238281 -11.304688 13.285156 -11.347656 13.328125 -11.421875 C 14.191406 -12.847656 15.453125 -13.5625 17.109375 -13.5625 Z M 17.109375 -13.5625 "/></g></g></g><g fill="#51a0a2" fill-opacity="1"><g transform="translate(86.734899, 32.194112)"><g><path d="M 4.578125 -14.234375 C 3.921875 -14.234375 3.394531 -14.425781 3 -14.8125 C 2.601562 -15.207031 2.40625 -15.722656 2.40625 -16.359375 C 2.40625 -17.171875 2.664062 -17.835938 3.1875 -18.359375 C 3.71875 -18.890625 4.382812 -19.15625 5.1875 -19.15625 C 5.863281 -19.15625 6.394531 -18.96875 6.78125 -18.59375 C 7.164062 -18.21875 7.359375 -17.722656 7.359375 -17.109375 C 7.359375 -16.265625 7.09375 -15.570312 6.5625 -15.03125 C 6.039062 -14.5 5.378906 -14.234375 4.578125 -14.234375 Z M 1.21875 0 C 1.082031 0 0.972656 -0.0390625 0.890625 -0.125 C 0.816406 -0.21875 0.785156 -0.332031 0.796875 -0.46875 L 2.328125 -12.890625 C 2.378906 -13.203125 2.550781 -13.359375 2.84375 -13.359375 L 6.09375 -13.359375 C 6.238281 -13.359375 6.34375 -13.316406 6.40625 -13.234375 C 6.476562 -13.148438 6.503906 -13.035156 6.484375 -12.890625 L 4.96875 -0.46875 C 4.945312 -0.332031 4.890625 -0.21875 4.796875 -0.125 C 4.710938 -0.0390625 4.601562 0 4.46875 0 Z M 1.21875 0 "/></g></g></g><g fill="#51a0a2" fill-opacity="1"><g transform="translate(93.376834, 32.194112)"><g><path d="M 9.53125 -13.5625 C 10.71875 -13.5625 11.664062 -13.210938 12.375 -12.515625 C 13.082031 -11.816406 13.4375 -10.847656 13.4375 -9.609375 C 13.4375 -9.453125 13.421875 -9.1875 13.390625 -8.8125 L 12.359375 -0.46875 C 12.335938 -0.332031 12.28125 -0.21875 12.1875 -0.125 C 12.101562 -0.0390625 11.992188 0 11.859375 0 L 8.609375 0 C 8.472656 0 8.363281 -0.0390625 8.28125 -0.125 C 8.207031 -0.21875 8.175781 -0.332031 8.1875 -0.46875 L 9.125 -7.875 L 9.15625 -8.21875 C 9.15625 -8.71875 9.019531 -9.117188 8.75 -9.421875 C 8.476562 -9.734375 8.113281 -9.890625 7.65625 -9.890625 C 7.15625 -9.890625 6.71875 -9.703125 6.34375 -9.328125 C 5.96875 -8.960938 5.75 -8.476562 5.6875 -7.875 L 4.78125 -0.46875 C 4.726562 -0.15625 4.554688 0 4.265625 0 L 1.015625 0 C 0.867188 0 0.757812 -0.0390625 0.6875 -0.125 C 0.625 -0.21875 0.601562 -0.332031 0.625 -0.46875 L 2.140625 -12.890625 C 2.160156 -13.035156 2.210938 -13.148438 2.296875 -13.234375 C 2.378906 -13.316406 2.492188 -13.359375 2.640625 -13.359375 L 5.890625 -13.359375 C 6.023438 -13.359375 6.128906 -13.316406 6.203125 -13.234375 C 6.285156 -13.148438 6.320312 -13.035156 6.3125 -12.890625 L 6.203125 -12.171875 C 6.179688 -12.085938 6.191406 -12.035156 6.234375 -12.015625 C 6.285156 -11.992188 6.335938 -12.019531 6.390625 -12.09375 C 7.160156 -13.070312 8.207031 -13.5625 9.53125 -13.5625 Z M 9.53125 -13.5625 "/></g></g></g><g fill="#51a0a2" fill-opacity="1"><g transform="translate(107.177586, 32.194112)"><g><path d="M 7.5 -3.4375 C 8.03125 -3.4375 8.523438 -3.515625 8.984375 -3.671875 C 9.453125 -3.835938 9.84375 -4.0625 10.15625 -4.34375 C 10.28125 -4.457031 10.394531 -4.515625 10.5 -4.515625 C 10.613281 -4.515625 10.707031 -4.457031 10.78125 -4.34375 L 12.09375 -2.421875 C 12.164062 -2.335938 12.203125 -2.238281 12.203125 -2.125 C 12.203125 -2.019531 12.148438 -1.894531 12.046875 -1.75 C 11.390625 -1.132812 10.601562 -0.65625 9.6875 -0.3125 C 8.78125 0.03125 7.832031 0.203125 6.84375 0.203125 C 5.707031 0.203125 4.722656 -0.00390625 3.890625 -0.421875 C 3.066406 -0.847656 2.414062 -1.441406 1.9375 -2.203125 C 1.351562 -3.160156 1.0625 -4.296875 1.0625 -5.609375 C 1.0625 -5.984375 1.085938 -6.378906 1.140625 -6.796875 C 1.222656 -7.566406 1.410156 -8.34375 1.703125 -9.125 C 2.222656 -10.46875 3.066406 -11.546875 4.234375 -12.359375 C 5.410156 -13.179688 6.722656 -13.59375 8.171875 -13.59375 C 9.835938 -13.59375 11.117188 -13.054688 12.015625 -11.984375 C 12.910156 -10.921875 13.398438 -9.429688 13.484375 -7.515625 C 13.484375 -6.828125 13.46875 -6.300781 13.4375 -5.9375 C 13.414062 -5.632812 13.242188 -5.484375 12.921875 -5.484375 L 5.34375 -5.484375 C 5.226562 -5.484375 5.171875 -5.421875 5.171875 -5.296875 C 5.171875 -5.078125 5.195312 -4.894531 5.25 -4.75 C 5.363281 -4.320312 5.613281 -3.992188 6 -3.765625 C 6.394531 -3.546875 6.894531 -3.4375 7.5 -3.4375 Z M 7.625 -9.890625 C 6.800781 -9.890625 6.171875 -9.46875 5.734375 -8.625 L 5.578125 -8.25 L 5.5625 -8.171875 C 5.5625 -8.128906 5.582031 -8.09375 5.625 -8.0625 C 5.664062 -8.039062 5.703125 -8.03125 5.734375 -8.03125 L 9.15625 -8.03125 C 9.21875 -8.03125 9.265625 -8.050781 9.296875 -8.09375 C 9.335938 -8.144531 9.347656 -8.195312 9.328125 -8.25 L 9.28125 -8.578125 C 9.195312 -8.992188 9.015625 -9.316406 8.734375 -9.546875 C 8.460938 -9.773438 8.09375 -9.890625 7.625 -9.890625 Z M 7.625 -9.890625 "/></g></g></g><g fill="#51a0a2" fill-opacity="1"><g transform="translate(121.004181, 32.194112)"><g><path d="M 7.5 -3.4375 C 8.03125 -3.4375 8.523438 -3.515625 8.984375 -3.671875 C 9.453125 -3.835938 9.84375 -4.0625 10.15625 -4.34375 C 10.28125 -4.457031 10.394531 -4.515625 10.5 -4.515625 C 10.613281 -4.515625 10.707031 -4.457031 10.78125 -4.34375 L 12.09375 -2.421875 C 12.164062 -2.335938 12.203125 -2.238281 12.203125 -2.125 C 12.203125 -2.019531 12.148438 -1.894531 12.046875 -1.75 C 11.390625 -1.132812 10.601562 -0.65625 9.6875 -0.3125 C 8.78125 0.03125 7.832031 0.203125 6.84375 0.203125 C 5.707031 0.203125 4.722656 -0.00390625 3.890625 -0.421875 C 3.066406 -0.847656 2.414062 -1.441406 1.9375 -2.203125 C 1.351562 -3.160156 1.0625 -4.296875 1.0625 -5.609375 C 1.0625 -5.984375 1.085938 -6.378906 1.140625 -6.796875 C 1.222656 -7.566406 1.410156 -8.34375 1.703125 -9.125 C 2.222656 -10.46875 3.066406 -11.546875 4.234375 -12.359375 C 5.410156 -13.179688 6.722656 -13.59375 8.171875 -13.59375 C 9.835938 -13.59375 11.117188 -13.054688 12.015625 -11.984375 C 12.910156 -10.921875 13.398438 -9.429688 13.484375 -7.515625 C 13.484375 -6.828125 13.46875 -6.300781 13.4375 -5.9375 C 13.414062 -5.632812 13.242188 -5.484375 12.921875 -5.484375 L 5.34375 -5.484375 C 5.226562 -5.484375 5.171875 -5.421875 5.171875 -5.296875 C 5.171875 -5.078125 5.195312 -4.894531 5.25 -4.75 C 5.363281 -4.320312 5.613281 -3.992188 6 -3.765625 C 6.394531 -3.546875 6.894531 -3.4375 7.5 -3.4375 Z M 7.625 -9.890625 C 6.800781 -9.890625 6.171875 -9.46875 5.734375 -8.625 L 5.578125 -8.25 L 5.5625 -8.171875 C 5.5625 -8.128906 5.582031 -8.09375 5.625 -8.0625 C 5.664062 -8.039062 5.703125 -8.03125 5.734375 -8.03125 L 9.15625 -8.03125 C 9.21875 -8.03125 9.265625 -8.050781 9.296875 -8.09375 C 9.335938 -8.144531 9.347656 -8.195312 9.328125 -8.25 L 9.28125 -8.578125 C 9.195312 -8.992188 9.015625 -9.316406 8.734375 -9.546875 C 8.460938 -9.773438 8.09375 -9.890625 7.625 -9.890625 Z M 7.625 -9.890625 "/></g></g></g></svg>